<svg width="53" height="64" viewBox="0 0 53 64" fill="none" xmlns="http://www.w3.org/2000/svg">
<path fill-rule="evenodd" clip-rule="evenodd" d="M20.4754 0.879944C20.0037 1.0742 1.19687 20.6803 0.830668 21.3597C0.187346 22.5531 -0.172986 22.1416 10.3839 32.2695C15.6858 37.3558 20.0438 41.5709 20.0684 41.6364C20.0931 41.7018 16.8689 44.4508 12.9036 47.7454C8.93834 51.0397 5.4597 54.0028 5.17353 54.3297C4.29994 55.3272 3.99884 56.1923 3.99106 57.7266C3.98534 58.8607 4.05108 59.223 4.39728 59.9631C4.98677 61.2232 5.68408 61.9433 6.89259 62.5398L7.94739 63.0606L20.0784 63.1043C31.4703 63.1453 32.2354 63.1307 32.6383 62.8654C33.3337 62.4075 51.7564 43.1141 52.0842 42.5005C52.704 41.3404 52.9459 41.6149 42.4149 31.5251C37.1308 26.4625 32.8074 22.2757 32.8074 22.2211C32.8074 22.1665 36.1363 19.3765 40.2049 16.021C44.2735 12.6655 47.8071 9.63686 48.0572 9.29054C48.8454 8.19969 49.0529 7.42745 48.9778 5.86402C48.8971 4.18196 48.4225 3.15655 47.2241 2.07636C45.7412 0.739507 46.5171 0.810044 32.8868 0.772467C26.1614 0.753837 20.6661 0.801446 20.4754 0.879944ZM44.7306 4.4985C45.2684 4.81711 45.6707 5.5825 45.6707 6.28724C45.6707 6.64677 45.5038 6.96251 45.0752 7.41407C44.7477 7.75911 41.0852 10.8374 36.9364 14.2546L29.3931 20.4678H17.9062C11.437 20.4678 6.44238 20.4072 6.47224 20.329C6.5013 20.2526 9.95532 16.6047 14.1478 12.2225L21.7705 4.25504L33.0212 4.24087C43.3559 4.22797 44.3093 4.24899 44.7306 4.4985ZM27.5669 23.9179C27.5669 24.1095 22.1357 38.6195 22.0639 38.6195C21.9585 38.6195 6.85067 24.1104 6.78985 23.9504C6.75999 23.8722 11.2896 23.8116 17.1519 23.8116C22.88 23.8116 27.5669 23.8595 27.5669 23.9179ZM38.9815 33.0466L46.206 39.9729L35.8289 40.0139C30.1214 40.0365 25.4209 40.0239 25.3833 39.9862C25.3455 39.9483 26.5453 36.6115 28.0495 32.571L30.7841 25.2245L31.2705 25.6724C31.5381 25.9188 35.008 29.2372 38.9815 33.0466ZM46.4382 43.5398C46.4091 43.6187 43.1695 47.0328 39.2391 51.1267C35.3086 55.2207 31.8359 58.8461 31.5218 59.1833L30.9505 59.7965L20.0084 59.7962C9.90451 59.796 9.02425 59.7747 8.52147 59.5175C8.22197 59.3645 7.83702 59.0478 7.66615 58.8139C7.29597 58.3076 7.25467 57.2699 7.58562 56.7961C7.71235 56.6147 11.3488 53.5273 15.6666 49.9352L23.5173 43.4041L35.0042 43.4001C41.756 43.3979 46.4693 43.4554 46.4382 43.5398Z" fill="#E74E0F"/>
</svg>
